# xmcd
#
# Track frame offsets: 
#        150
#        23707
#        57903
#        78377
#        90226
#        114133
#        136029
#        155828
#        182002
#        200451
#        214025
#        240499
#        285648
#        299897
#
# Disc length: 4450 seconds
#
# Revision: 0
# Processed by: cddbd v1.5.2PL0 Copyright (c) Steve Scherf et al.
# Submitted via: ExactAudioCopy v1.3
#
DISCID=be11600e
DTITLE=Braindogs - Real Live Brains - Celebration of Tom Waits
DYEAR=2019
DGENRE=Blues
TTITLE0=Goin' out West
TTITLE1=Shore Leave
TTITLE2=Everybody's Talking at the Same Time
TTITLE3=Underground
TTITLE4=Jockey Full of Bourbon
TTITLE5=Dirt in the Ground
TTITLE6=Heartattack and Vine
TTITLE7=16 Shells from a Thirty-Ought-Six
TTITLE8=Yesterday Is Here
TTITLE9=2: 19
TTITLE10=Raindogs
TTITLE11=The House Where Nobody Lives
TTITLE12=Union Square
TTITLE13=Downtown Train
EXTD=
EXTT0=
EXTT1=
EXTT2=
EXTT3=
EXTT4=
EXTT5=
EXTT6=
EXTT7=
EXTT8=
EXTT9=
EXTT10=
EXTT11=
EXTT12=
EXTT13=
PLAYORDER=
